<?xml version="1.0" standalone="no"?><svg xmlns="http://www.w3.org/2000/svg" viewBox="0 0 1440 320"><path fill="#4b99e3" fill-opacity="1" d="M0,224L40,234.7C80,245,160,267,240,245.3C320,224,400,160,480,144C560,128,640,160,720,165.3C800,171,880,149,960,138.7C1040,128,1120,128,1200,133.3C1280,139,1360,149,1400,154.7L1440,160L1440,320L1400,320C1360,320,1280,320,1200,320C1120,320,1040,320,960,320C880,320,800,320,720,320C640,320,560,320,480,320C400,320,320,320,240,320C160,320,80,320,40,320L0,320Z"></path></svg>